<svg width="11" height="9" viewBox="0 0 11 9" fill="none" xmlns="http://www.w3.org/2000/svg">
<path d="M3.08211 8.13804C3.16306 8.21899 3.27288 8.26445 3.38735 8.26445C3.50186 8.26445 3.61164 8.21896 3.69256 8.13804L9.57737 2.25323C9.65834 2.17228 9.70381 2.0625 9.70381 1.94802C9.70381 1.83352 9.65834 1.72373 9.57737 1.64278L8.35645 0.421892C8.1879 0.253345 7.91457 0.253317 7.746 0.421892L3.38747 4.78048L2.16652 3.55953C2.08557 3.47858 1.97575 3.43309 1.86128 3.43309C1.74681 3.43309 1.63702 3.47858 1.55607 3.55953L0.33515 4.78045C0.166604 4.94903 0.166604 5.22232 0.33515 5.3909L3.08211 8.13804Z" fill="white"/>
</svg>
